# xmcd
#
# Track frame offsets:
# 183
# 19683
# 33858
# 49458
# 70383
# 92133
# 110133
# 127458
# 142533
# 158283
# 174333
# 191733
# 210558
# 227583
# 243333
#
# Disc length: 3403 seconds
#
#
# Revision: 5
# Processed by: cddbd v1.5.2PL0 Copyright (c) Steve Scherf et al.
# Submitted via: FreeRIP 2.945 
#
DISCID=ca0d490f
DTITLE=Various Artist - Solitaire 2
DYEAR=1900
DGENRE=misc
TTITLE0=Carol McDonald  - I will always love You
TTITLE1=Peter Carson - Without you
TTITLE2=Cindy McCall - Nobody does it better
TTITLE3=Honey Moon - A whiter shade of pale
TTITLE4=Jennifer Cotton - Je t'aime moi non plus
TTITLE5=Blue Night - Everybody's got lo learns sometime
TTITLE6=John Cable - Vincent
TTITLE7=Lenny Johnson - We have all the time in the world
TTITLE8=Teddy Lawrence - Father and son
TTITLE9=Marvin Brothers - Unchained melody
TTITLE10=Phil Cooke - September morn
TTITLE11=Tommy Glover - Song for guy
TTITLE12=Rondald Evans - Honesty
TTITLE13=Emy Phillips  - Do you know where you're going to
TTITLE14=French Boy - I'm not in love
EXTD=
EXTT0=
EXTT1=
EXTT2=
EXTT3=
EXTT4=
EXTT5=
EXTT6=
EXTT7=
EXTT8=
EXTT9=
EXTT10=
EXTT11=
EXTT12=
EXTT13=
EXTT14=
PLAYORDER=
